<?xml version="1.0" standalone="no"?><!DOCTYPE svg PUBLIC "-//W3C//DTD SVG 1.1//EN" "http://www.w3.org/Graphics/SVG/1.1/DTD/svg11.dtd"><svg class="icon" height="512" viewBox="0 0 1024 1024" version="1.1" xmlns="http://www.w3.org/2000/svg"><path d="M1018.946 512.788l-118.782-135.602a20.406 20.406 0 0 0-15.344-6.958h-98.91v-83.744c0-11.266-9.134-20.398-20.398-20.398H344.218c-11.264 0-20.398 9.132-20.398 20.398v27.524H127.636c-11.264 0-20.398 9.132-20.398 20.398s9.134 20.398 20.398 20.398h196.184v264.42h-118.092c-11.264 0-20.398 9.132-20.398 20.398s9.134 20.398 20.398 20.398h118.092v20.73c0 11.266 9.134 20.398 20.398 20.398h42.576c8.97 32.678 38.918 56.764 74.406 56.764 35.488 0 65.436-24.086 74.408-56.764h272.178v-0.002c8.97 32.678 38.918 56.764 74.406 56.764 35.488 0 65.436-24.086 74.408-56.764h47.004c11.264 0 20.398-9.132 20.398-20.398v-154.522c-0.002-4.942-1.8-9.72-5.056-13.438zM461.2 717.116c-20.052 0-36.364-16.314-36.364-36.366s16.312-36.366 36.364-36.366 36.366 16.314 36.366 36.366-16.314 36.366-36.366 36.366z m74.404-56.764c-8.97-32.678-38.92-56.764-74.408-56.764s-65.434 24.086-74.406 56.764h-22.178V306.88h380.494v353.472H535.604z m346.584 56.764c-20.052 0-36.364-16.314-36.364-36.366s16.312-36.366 36.364-36.366c20.052 0 36.366 16.314 36.366 36.366s-16.312 36.366-36.366 36.366z m101.016-56.764h-26.608c-8.97-32.678-38.92-56.764-74.408-56.764s-65.434 24.086-74.406 56.764h-21.878V411.024h89.662l107.636 122.874v126.454zM138.522 619.222h-10.884c-11.264 0-20.398 9.132-20.398 20.398s9.134 20.398 20.398 20.398h10.884c11.264 0 20.398-9.132 20.398-20.398s-9.132-20.398-20.398-20.398zM239 464.552H20.398C9.134 464.552 0 473.684 0 484.95s9.134 20.398 20.398 20.398H239c11.264 0 20.398-9.132 20.398-20.398s-9.134-20.398-20.398-20.398z" /></svg>